PathFileType  4	(X/Y/Z) C:\Users\antoi\Documents\MyRepositories\mobilecap\ResultsAnalysis
DataRate	CameraRate	NumFrames	NumMarkers	Units	OrigDataRate	OrigDataStartFrame	OrigNumFrames
100.0	100.0	4	51	mm	100.0	129	257
Frame#	Time	r_knee			r_shank_antsup			r_ankle			r_calc			r_5meta			r_toe			L_knee			L_shank_antsup			L_ankle			L_calc			L_5meta			L_toe			r_sh2			r_sh3			r_sh4			L_sh2			L_sh3			r_thigh1			r_thigh2			r_thigh3			r_thigh4			r_thigh5			L_thigh1			L_thigh2			L_thigh3			L_thigh4			r.ASIS			r.PSIS			L.ASIS			L.PSIS			C7			R_Shoulder			L_Shoulder			R_Sternum			L_Sternum			R_humerus			R_elbow_med			R_elbow_lat			R_forearm			R_wrist_radius			R_wrist_ulna			L_humerus			L_elbow_med			L_elbow_lat			L_forearm			L_wrist_radius			L_wrist_ulna			R_HJC			L_HJC			R_HJC_reg			L_HJC_reg			
		X1	Y1	Z1	X2	Y2	Z2	X3	Y3	Z3	X4	Y4	Z4	X5	Y5	Z5	X6	Y6	Z6	X7	Y7	Z7	X8	Y8	Z8	X9	Y9	Z9	X10	Y10	Z10	X11	Y11	Z11	X12	Y12	Z12	X13	Y13	Z13	X14	Y14	Z14	X15	Y15	Z15	X16	Y16	Z16	X17	Y17	Z17	X18	Y18	Z18	X19	Y19	Z19	X20	Y20	Z20	X21	Y21	Z21	X22	Y22	Z22	X23	Y23	Z23	X24	Y24	Z24	X25	Y25	Z25	X26	Y26	Z26	X27	Y27	Z27	X28	Y28	Z28	X29	Y29	Z29	X30	Y30	Z30	X31	Y31	Z31	X32	Y32	Z32	X33	Y33	Z33	X34	Y34	Z34	X35	Y35	Z35	X36	Y36	Z36	X37	Y37	Z37	X38	Y38	Z38	X39	Y39	Z39	X40	Y40	Z40	X41	Y41	Z41	X42	Y42	Z42	X43	Y43	Z43	X44	Y44	Z44	X45	Y45	Z45	X46	Y46	Z46	X47	Y47	Z47	X48	Y48	Z48	X49	Y49	Z49	X50	Y50	Z50	X51	Y51	Z51	

129	1.28000000	-258.79706	703.68447	-304.51436	-219.34383	560.37995	-288.69342	-293.90139	201.13337	-263.67250	-345.94107	193.34427	-336.44685	-191.65950	94.04807	-225.14047	-140.64429	109.65937	-268.45974	-278.90344	685.30607	-810.51129	-210.15088	490.21907	-814.73409	-285.42796	194.99413	-852.31125	-339.85992	183.26900	-782.50089	-197.66537	62.98710	-902.54136	-139.09678	73.65059	-851.20922	-223.33923	446.17331	-283.03782	-289.07572	563.02286	-258.99089	-295.76792	451.06985	-244.64837	-282.39535	502.99476	-865.25868	-286.93479	383.27251	-863.26321	-398.79178	961.38561	-334.79738	-323.10852	882.61613	-312.43488	-354.77198	821.30224	-304.61570	-476.40124	883.81795	-362.39613	-397.58219	798.27392	-332.54990	-363.00868	972.14364	-762.06842	-292.47306	858.31764	-782.52791	-458.62577	924.57070	-792.52893	-384.54460	808.73230	-814.05320	-444.01101	1174.26923	-434.35648	-611.74096	1223.01523	-527.48446	-435.77047	1154.82602	-696.41679	-609.12552	1221.54084	-618.13896	-334.78069	1655.77506	-613.89035	-285.30080	1603.48336	-436.30526	-270.66081	1578.32484	-772.33792	-250.90919	1525.08319	-566.36448	-247.20411	1520.32975	-615.71400	-506.56172	1507.91142	-324.26021	-662.01966	1502.49452	-370.86469	-631.29237	1533.71004	-294.67831	-582.86572	1330.47193	-244.39296	-560.59271	1245.09847	-233.01576	-589.86054	1246.95310	-210.20165	-439.27189	1389.23403	-903.26270	-574.28415	1389.72133	-887.62178	-532.11731	1380.91232	-958.76600	-426.95172	1210.64581	-920.32282	-388.95842	1157.00720	-891.13737	-402.81496	1144.64202	-921.92986	-529.71185	1087.98531	-464.01713	-528.83670	1079.15884	-661.29336	-518.95351	1094.98855	-472.42387	-513.94952	1092.16707	-645.85112	
130	1.29000000	-239.32561	680.82127	-303.92372	-202.27136	536.65269	-288.28891	-282.45132	179.09719	-263.58116	-336.36897	172.94482	-336.36257	-184.22532	69.21974	-226.57587	-133.56009	83.30017	-270.70245	-261.19044	660.74251	-811.19461	-194.68023	463.17334	-812.44032	-279.98864	171.52141	-852.81444	-338.49599	163.87532	-778.77372	-197.07096	49.45114	-899.82909	-139.41955	61.88422	-848.29605	-207.95057	422.55868	-282.99971	-272.18045	540.49843	-258.52768	-280.74345	428.34453	-245.03719	-264.59804	477.40724	-865.80631	-273.60289	358.30618	-862.80300	-386.01252	935.20692	-333.44206	-306.96806	859.20643	-311.11068	-337.03487	797.01742	-303.20960	-460.67930	855.43336	-360.61841	-378.74991	772.21395	-332.02268	-349.30961	946.14593	-763.54524	-277.09641	833.12277	-782.88143	-443.83643	896.76576	-794.01609	-367.73410	782.38678	-816.77373	-433.21693	1144.43159	-433.39803	-601.92189	1193.02913	-527.23944	-425.98848	1126.02747	-696.29409	-599.59624	1191.95010	-617.92550	-326.90925	1626.82587	-613.69313	-278.87972	1573.42370	-434.89050	-264.84687	1548.43218	-772.88497	-242.27325	1496.85105	-566.18678	-238.35780	1491.72954	-615.70962	-498.76688	1468.61234	-326.64933	-652.61733	1456.45831	-375.40952	-625.08163	1489.82700	-299.41292	-569.19837	1288.87268	-246.74047	-543.64455	1204.81531	-234.59580	-573.29928	1205.36412	-212.35633	-428.89928	1351.20311	-899.85013	-563.61870	1346.91501	-882.53328	-521.95307	1339.03548	-954.28894	-409.95749	1172.94891	-915.06902	-370.03054	1121.13829	-885.49271	-383.47070	1108.44794	-916.52157	-519.24509	1058.09058	-463.95310	-518.56546	1049.87558	-661.25750	-508.24782	1064.77513	-471.68895	-503.78899	1062.70835	-645.61878	
131	1.30000000	-222.18356	656.49749	-302.52496	-185.90426	512.25146	-287.45645	-276.39976	157.42730	-264.67427	-332.96094	151.10245	-337.26902	-179.04397	51.51545	-227.54041	-128.65359	65.20863	-272.41609	-240.10408	637.22112	-811.50926	-184.37264	436.54437	-809.85792	-291.74745	153.98816	-850.82890	-352.57611	140.92827	-775.45766	-201.57244	46.13120	-897.50380	-144.90498	62.56455	-846.25449	-192.67677	398.19979	-282.61052	-256.04587	516.87213	-257.78189	-265.44169	404.32000	-244.73287	-251.46749	454.49272	-865.69622	-271.23995	337.37765	-858.98719	-373.63251	907.58812	-332.15570	-292.40747	833.57862	-309.44663	-321.35213	770.79174	-301.08446	-445.97071	826.54144	-358.71399	-362.20203	744.89570	-330.91238	-336.62514	920.52884	-768.44325	-261.76643	809.07905	-785.57052	-429.91578	867.22403	-794.06467	-350.99978	755.76952	-819.07429	-422.71978	1113.79310	-432.90967	-592.62369	1162.44599	-526.91597	-417.13736	1096.10071	-696.52716	-590.74016	1161.88762	-617.76950	-319.30046	1597.27033	-613.45551	-272.57863	1542.59161	-433.68249	-259.40645	1517.99431	-773.30809	-233.53782	1467.93868	-565.91620	-229.39199	1462.51808	-615.73544	-490.03920	1427.61128	-328.30022	-642.62720	1408.93026	-378.75275	-617.76424	1444.36699	-302.72547	-553.06631	1245.90707	-248.49894	-523.91652	1163.74301	-235.50921	-553.73641	1162.66033	-213.79563	-417.77025	1312.02188	-895.99865	-551.84945	1302.82662	-877.89045	-510.35229	1295.87673	-950.25171	-391.16521	1134.73793	-909.65794	-349.44691	1084.92580	-879.38391	-362.16487	1071.90180	-910.51574	-509.37679	1027.54978	-463.99238	-509.39340	1019.77959	-661.31612	-498.03144	1033.53186	-471.36454	-494.41683	1032.45985	-645.74156	
132	1.31000000	-206.02805	632.46195	-300.51645	-171.36733	487.75045	-287.57316	-283.23427	138.86670	-267.89878	-340.95668	126.50822	-338.76490	-178.93855	45.66015	-227.70297	-128.64826	61.43025	-272.79661	-218.02765	615.36823	-812.65218	-180.46873	411.36022	-809.03558	-315.38906	140.37226	-846.67035	-372.85342	114.78496	-774.66371	-207.03157	44.30418	-896.96665	-151.76535	65.44242	-845.24483	-182.90195	374.23639	-283.55772	-240.08533	494.58849	-256.48743	-254.57149	382.89645	-244.38626	-247.34704	435.45397	-862.83258	-278.70016	320.50379	-853.62671	-361.21686	879.62711	-329.43501	-279.10273	806.68276	-307.05022	-307.19017	743.36957	-300.17215	-431.83857	798.53209	-358.32569	-347.55395	717.36969	-330.54381	-325.12371	895.59094	-775.48468	-247.15746	786.83059	-790.55365	-417.47184	837.64040	-793.53501	-335.19688	729.20649	-819.99543	-412.87057	1082.75794	-432.56564	-584.11496	1131.39799	-526.57218	-408.49637	1066.31988	-696.42434	-582.31791	1131.50249	-617.56895	-311.78495	1567.49966	-613.11234	-266.23859	1511.48391	-432.93063	-254.17578	1487.47283	-773.64054	-224.34457	1438.95858	-565.48158	-220.41788	1433.11557	-616.00314	-480.18334	1385.20825	-329.11915	-631.45409	1359.85947	-380.47473	-608.96777	1397.34894	-304.54207	-534.28326	1202.02137	-249.41603	-501.14060	1122.05869	-235.91442	-531.05761	1119.24593	-214.57820	-405.58595	1272.19496	-891.96332	-538.77556	1257.85367	-873.71748	-497.12979	1251.88676	-946.53447	-370.50330	1096.42267	-903.95936	-326.79535	1049.27699	-872.74435	-338.86571	1035.62805	-904.12081	-499.99193	996.53619	-464.19261	-500.39933	989.60529	-661.54632	-488.44722	1002.02525	-471.54151	-485.00252	1002.22235	-646.01861	
